<svg  viewBox="0 0 487 84" fill="none" xmlns="http://www.w3.org/2000/svg">
<path d="M43.68 12.72V59H33.54V21.365H14.625V59H4.485V12.72H43.68ZM81.2637 48.6C80.2237 52.1967 78.2954 54.9917 75.4787 56.985C72.7054 58.9783 69.3904 59.975 65.5337 59.975C60.377 59.975 56.217 58.3717 53.0537 55.165C49.9337 51.9583 48.3737 47.7117 48.3737 42.425C48.3737 37.225 49.9554 32.935 53.1187 29.555C56.282 26.175 60.312 24.485 65.2087 24.485C70.2787 24.485 74.3087 26.2183 77.2987 29.685C80.2887 33.1083 81.7837 37.7667 81.7837 43.66V44.57H57.7337C57.777 47.4733 58.4704 49.6833 59.8137 51.2C61.2004 52.7167 63.1287 53.475 65.5987 53.475C68.8487 53.475 71.1237 51.85 72.4237 48.6H81.2637ZM72.4237 38.72C72.207 36.51 71.492 34.7117 70.2787 33.325C69.0654 31.895 67.3754 31.18 65.2087 31.18C63.172 31.18 61.482 31.8517 60.1387 33.195C58.7954 34.5383 57.9937 36.38 57.7337 38.72H72.4237ZM84.9829 25.46H104.288C107.451 25.46 110.03 26.175 112.023 27.605C114.016 28.9917 115.013 31.0933 115.013 33.91C115.013 37.1167 113.496 39.4133 110.463 40.8C114.536 41.97 116.573 44.7 116.573 48.99C116.573 52.1533 115.49 54.6233 113.323 56.4C111.2 58.1333 108.491 59 105.198 59H84.9829V25.46ZM94.0829 38.915H100.193C103.833 38.915 105.653 37.6367 105.653 35.08C105.653 33.6067 105.155 32.61 104.158 32.09C103.205 31.57 101.883 31.31 100.193 31.31H94.0829V38.915ZM94.0829 53.02H100.908C102.815 53.02 104.31 52.7167 105.393 52.11C106.476 51.5033 107.018 50.3333 107.018 48.6C107.018 46.8233 106.433 45.6317 105.263 45.025C104.093 44.4183 102.511 44.115 100.518 44.115H94.0829V53.02ZM152.012 48.6C150.972 52.1967 149.044 54.9917 146.227 56.985C143.454 58.9783 140.139 59.975 136.282 59.975C131.125 59.975 126.965 58.3717 123.802 55.165C120.682 51.9583 119.122 47.7117 119.122 42.425C119.122 37.225 120.704 32.935 123.867 29.555C127.03 26.175 131.06 24.485 135.957 24.485C141.027 24.485 145.057 26.2183 148.047 29.685C151.037 33.1083 152.532 37.7667 152.532 43.66V44.57H128.482C128.525 47.4733 129.219 49.6833 130.562 51.2C131.949 52.7167 133.877 53.475 136.347 53.475C139.597 53.475 141.872 51.85 143.172 48.6H152.012ZM143.172 38.72C142.955 36.51 142.24 34.7117 141.027 33.325C139.814 31.895 138.124 31.18 135.957 31.18C133.92 31.18 132.23 31.8517 130.887 33.195C129.544 34.5383 128.742 36.38 128.482 38.72H143.172ZM190.116 59H178.936L169.251 44.57L165.156 48.73V59H156.121V25.46H165.156V38.72L177.441 25.46H188.296L175.296 38.46L190.116 59Z" fill="#053095"/>
<path fill-rule="evenodd" clip-rule="evenodd" d="M222.447 26.05C218.982 26.5837 217.844 30.8849 220.597 33.0429C220.789 33.1938 220.805 33.2178 220.712 33.2179C220.652 33.2181 219.847 33.2693 218.922 33.3319C217.997 33.3944 217.184 33.4457 217.114 33.4458L216.987 33.446V34.1962V34.9464L217.229 34.9726C217.362 34.987 218.412 35.0599 219.562 35.1346C220.713 35.2094 221.661 35.2782 221.671 35.2874C221.75 35.3658 221.271 50.8909 221.182 51.1261C220.791 52.1622 219.292 52.7953 217.951 52.4905C216.312 52.118 214.47 49.5675 214.157 47.2372L214.129 47.0317L214.948 46.8768C215.398 46.7916 215.801 46.7094 215.843 46.6941C215.928 46.6636 212.026 41.6746 211.94 41.7035C211.9 41.7171 209.973 47.7892 210 47.8164C210.007 47.823 210.384 47.7571 210.839 47.6699C211.294 47.5826 211.68 47.5113 211.698 47.5113C211.716 47.5112 211.744 47.5883 211.76 47.6825C212.446 51.7061 215.398 54.6854 220.005 56.0037C220.479 56.1393 220.745 56.3067 221.919 57.2081C222.502 57.6563 223.005 58.0125 223.036 57.9997C223.067 57.9868 223.558 57.6148 224.129 57.173C225.269 56.2895 225.562 56.1193 226.294 55.9167C230.526 54.7456 233.574 51.5868 234.24 47.6825C234.256 47.5883 234.283 47.5112 234.301 47.5113C234.319 47.5113 234.706 47.5826 235.16 47.6699C235.615 47.7571 235.993 47.8228 236 47.8159C236.027 47.7884 234.091 41.6888 234.055 41.6888C233.957 41.6888 230.08 46.6666 230.156 46.6941C230.199 46.7094 230.602 46.7916 231.052 46.8768L231.87 47.0317L231.843 47.2372C231.53 49.5675 229.688 52.118 228.048 52.4905C226.709 52.795 225.209 52.1622 224.818 51.1275C224.73 50.8939 224.25 35.3652 224.329 35.2873C224.338 35.2781 225.287 35.2094 226.437 35.1346C227.587 35.0599 228.637 34.987 228.77 34.9726L229.012 34.9464V34.1962V33.446L228.886 33.4458C228.816 33.4457 228.002 33.3944 227.077 33.3319C226.152 33.2693 225.347 33.2181 225.288 33.2179C225.195 33.2178 225.21 33.1939 225.403 33.0416C228.561 30.5468 226.402 25.4408 222.447 26.05ZM223.721 28.4721C225.26 29.2503 224.722 31.5418 223 31.5418C221.276 31.5418 220.74 29.2501 222.281 28.4708C222.663 28.2776 223.338 28.2782 223.721 28.4721Z" fill="#053095"/>
<path d="M257.44 22.184H259.78L263.902 33.038L267.88 22.184H270.238V35H268.636V24.308L264.622 35H263.146L259.06 24.308V35H257.44V22.184ZM277.17 26.774C277.986 25.886 279.096 25.442 280.5 25.442C281.904 25.442 282.996 25.868 283.776 26.72C284.556 27.572 284.946 28.766 284.946 30.302C284.946 31.874 284.556 33.098 283.776 33.974C282.996 34.85 281.898 35.288 280.482 35.288C279.066 35.288 277.956 34.856 277.152 33.992C276.348 33.128 275.946 31.928 275.946 30.392C275.946 28.868 276.354 27.662 277.17 26.774ZM282.588 27.71C282.072 27.05 281.364 26.72 280.464 26.72C279.564 26.72 278.85 27.05 278.322 27.71C277.794 28.37 277.53 29.252 277.53 30.356C277.53 31.496 277.788 32.39 278.304 33.038C278.832 33.674 279.564 33.992 280.5 33.992C281.4 33.992 282.102 33.668 282.606 33.02C283.122 32.372 283.38 31.478 283.38 30.338C283.38 29.234 283.116 28.358 282.588 27.71ZM291.808 25.712V27.026C292.48 25.958 293.524 25.424 294.94 25.424C296.236 25.424 297.262 25.862 298.018 26.738C298.786 27.614 299.17 28.802 299.17 30.302C299.17 31.802 298.792 33.002 298.036 33.902C297.292 34.79 296.284 35.234 295.012 35.234C293.68 35.234 292.642 34.724 291.898 33.704V38.582H290.368V25.712H291.808ZM294.706 26.702C293.818 26.702 293.116 27.026 292.6 27.674C292.096 28.31 291.844 29.192 291.844 30.32C291.844 31.448 292.102 32.336 292.618 32.984C293.146 33.62 293.86 33.938 294.76 33.938C295.636 33.938 296.326 33.614 296.83 32.966C297.334 32.318 297.586 31.436 297.586 30.32C297.586 29.192 297.328 28.31 296.812 27.674C296.308 27.026 295.606 26.702 294.706 26.702ZM312.63 31.616C312.498 32.732 312.072 33.62 311.352 34.28C310.644 34.94 309.72 35.27 308.58 35.27C307.176 35.27 306.09 34.838 305.322 33.974C304.554 33.098 304.17 31.934 304.17 30.482C304.17 28.934 304.572 27.71 305.376 26.81C306.18 25.898 307.266 25.442 308.634 25.442C309.774 25.442 310.686 25.73 311.37 26.306C312.054 26.87 312.456 27.68 312.576 28.736H310.992C310.716 27.392 309.936 26.72 308.652 26.72C307.764 26.72 307.062 27.05 306.546 27.71C306.03 28.358 305.772 29.24 305.772 30.356C305.772 31.484 306.018 32.372 306.51 33.02C307.002 33.668 307.68 33.992 308.544 33.992C309.24 33.992 309.804 33.788 310.236 33.38C310.68 32.972 310.962 32.384 311.082 31.616H312.63ZM326.222 35H324.278L320.894 30.428L319.436 31.85V35H317.906V25.712H319.436V30.14L323.684 25.712H325.736L321.992 29.366L326.222 35ZM331.578 26.774C332.394 25.886 333.504 25.442 334.908 25.442C336.312 25.442 337.404 25.868 338.184 26.72C338.964 27.572 339.354 28.766 339.354 30.302C339.354 31.874 338.964 33.098 338.184 33.974C337.404 34.85 336.306 35.288 334.89 35.288C333.474 35.288 332.364 34.856 331.56 33.992C330.756 33.128 330.354 31.928 330.354 30.392C330.354 28.868 330.762 27.662 331.578 26.774ZM336.996 27.71C336.48 27.05 335.772 26.72 334.872 26.72C333.972 26.72 333.258 27.05 332.73 27.71C332.202 28.37 331.938 29.252 331.938 30.356C331.938 31.496 332.196 32.39 332.712 33.038C333.24 33.674 333.972 33.992 334.908 33.992C335.808 33.992 336.51 33.668 337.014 33.02C337.53 32.372 337.788 31.478 337.788 30.338C337.788 29.234 337.524 28.358 336.996 27.71ZM351.345 22.184C351.225 22.94 350.931 23.546 350.463 24.002C350.007 24.446 349.401 24.668 348.645 24.668C347.913 24.668 347.295 24.44 346.791 23.984C346.299 23.516 346.005 22.916 345.909 22.184H346.827C347.103 23.12 347.703 23.588 348.627 23.588C349.515 23.588 350.115 23.12 350.427 22.184H351.345ZM346.737 35H344.775V25.712H346.305V33.29H346.341L350.517 25.712H352.479V35H350.949V27.422H350.913L346.737 35ZM264.262 50.062H260.932V58H259.402V50.062H256.072V48.712H264.262V50.062ZM269.506 49.774C270.322 48.886 271.432 48.442 272.836 48.442C274.24 48.442 275.332 48.868 276.112 49.72C276.892 50.572 277.282 51.766 277.282 53.302C277.282 54.874 276.892 56.098 276.112 56.974C275.332 57.85 274.234 58.288 272.818 58.288C271.402 58.288 270.292 57.856 269.488 56.992C268.684 56.128 268.282 54.928 268.282 53.392C268.282 51.868 268.69 50.662 269.506 49.774ZM274.924 50.71C274.408 50.05 273.7 49.72 272.8 49.72C271.9 49.72 271.186 50.05 270.658 50.71C270.13 51.37 269.866 52.252 269.866 53.356C269.866 54.496 270.124 55.39 270.64 56.038C271.168 56.674 271.9 56.992 272.836 56.992C273.736 56.992 274.438 56.668 274.942 56.02C275.458 55.372 275.716 54.478 275.716 53.338C275.716 52.234 275.452 51.358 274.924 50.71ZM284.144 48.712V50.026C284.816 48.958 285.86 48.424 287.276 48.424C288.572 48.424 289.598 48.862 290.354 49.738C291.122 50.614 291.506 51.802 291.506 53.302C291.506 54.802 291.128 56.002 290.372 56.902C289.628 57.79 288.62 58.234 287.348 58.234C286.016 58.234 284.978 57.724 284.234 56.704V61.582H282.704V48.712H284.144ZM287.042 49.702C286.154 49.702 285.452 50.026 284.936 50.674C284.432 51.31 284.18 52.192 284.18 53.32C284.18 54.448 284.438 55.336 284.954 55.984C285.482 56.62 286.196 56.938 287.096 56.938C287.972 56.938 288.662 56.614 289.166 55.966C289.67 55.318 289.922 54.436 289.922 53.32C289.922 52.192 289.664 51.31 289.148 50.674C288.644 50.026 287.942 49.702 287.042 49.702ZM303.381 50.062H298.539V58H297.009V48.712H303.381V50.062ZM308.431 49.774C309.247 48.886 310.357 48.442 311.761 48.442C313.165 48.442 314.257 48.868 315.037 49.72C315.817 50.572 316.207 51.766 316.207 53.302C316.207 54.874 315.817 56.098 315.037 56.974C314.257 57.85 313.159 58.288 311.743 58.288C310.327 58.288 309.217 57.856 308.413 56.992C307.609 56.128 307.207 54.928 307.207 53.392C307.207 51.868 307.615 50.662 308.431 49.774ZM313.849 50.71C313.333 50.05 312.625 49.72 311.725 49.72C310.825 49.72 310.111 50.05 309.583 50.71C309.055 51.37 308.791 52.252 308.791 53.356C308.791 54.496 309.049 55.39 309.565 56.038C310.093 56.674 310.825 56.992 311.761 56.992C312.661 56.992 313.363 56.668 313.867 56.02C314.383 55.372 314.641 54.478 314.641 53.338C314.641 52.234 314.377 51.358 313.849 50.71ZM321.593 58V48.712H325.895C326.507 48.712 327.029 48.766 327.461 48.874C327.893 48.97 328.271 49.192 328.595 49.54C328.919 49.888 329.081 50.362 329.081 50.962C329.081 51.874 328.625 52.54 327.713 52.96V52.978C328.265 53.086 328.697 53.344 329.009 53.752C329.321 54.148 329.477 54.652 329.477 55.264C329.477 56.056 329.213 56.71 328.685 57.226C328.157 57.742 327.479 58 326.651 58H321.593ZM325.733 52.456C326.369 52.456 326.819 52.354 327.083 52.15C327.359 51.934 327.497 51.622 327.497 51.214C327.497 50.806 327.365 50.506 327.101 50.314C326.837 50.122 326.381 50.026 325.733 50.026H323.087V52.456H325.733ZM323.087 53.752V56.686H326.363C326.843 56.686 327.215 56.542 327.479 56.254C327.755 55.966 327.893 55.594 327.893 55.138C327.893 54.214 327.293 53.752 326.093 53.752H323.087ZM343.753 48.712H345.283V58H343.753V48.712ZM341.449 53.032C342.001 53.536 342.277 54.226 342.277 55.102C342.277 55.978 342.007 56.68 341.467 57.208C340.939 57.736 340.225 58 339.325 58H334.843V48.712H336.373V52.258H339.253C340.165 52.258 340.897 52.516 341.449 53.032ZM338.767 53.572H336.373V56.65H338.767C339.391 56.65 339.865 56.518 340.189 56.254C340.525 55.978 340.693 55.594 340.693 55.102C340.693 54.082 340.051 53.572 338.767 53.572ZM357.74 45.184C357.62 45.94 357.326 46.546 356.858 47.002C356.402 47.446 355.796 47.668 355.04 47.668C354.308 47.668 353.69 47.44 353.186 46.984C352.694 46.516 352.4 45.916 352.304 45.184H353.222C353.498 46.12 354.098 46.588 355.022 46.588C355.91 46.588 356.51 46.12 356.822 45.184H357.74ZM353.132 58H351.17V48.712H352.7V56.29H352.736L356.912 48.712H358.874V58H357.344V50.422H357.308L353.132 58ZM374.912 58H373.382V48.712H381.086V58H379.556V50.062H374.912V58ZM387.722 49.774C388.538 48.886 389.648 48.442 391.052 48.442C392.456 48.442 393.548 48.868 394.328 49.72C395.108 50.572 395.498 51.766 395.498 53.302C395.498 54.874 395.108 56.098 394.328 56.974C393.548 57.85 392.45 58.288 391.034 58.288C389.618 58.288 388.508 57.856 387.704 56.992C386.9 56.128 386.498 54.928 386.498 53.392C386.498 51.868 386.906 50.662 387.722 49.774ZM393.14 50.71C392.624 50.05 391.916 49.72 391.016 49.72C390.116 49.72 389.402 50.05 388.874 50.71C388.346 51.37 388.082 52.252 388.082 53.356C388.082 54.496 388.34 55.39 388.856 56.038C389.384 56.674 390.116 56.992 391.052 56.992C391.952 56.992 392.654 56.668 393.158 56.02C393.674 55.372 393.932 54.478 393.932 53.338C393.932 52.234 393.668 51.358 393.14 50.71ZM402.36 48.712V50.026C403.032 48.958 404.076 48.424 405.492 48.424C406.788 48.424 407.814 48.862 408.57 49.738C409.338 50.614 409.722 51.802 409.722 53.302C409.722 54.802 409.344 56.002 408.588 56.902C407.844 57.79 406.836 58.234 405.564 58.234C404.232 58.234 403.194 57.724 402.45 56.704V61.582H400.92V48.712H402.36ZM405.258 49.702C404.37 49.702 403.668 50.026 403.152 50.674C402.648 51.31 402.396 52.192 402.396 53.32C402.396 54.448 402.654 55.336 403.17 55.984C403.698 56.62 404.412 56.938 405.312 56.938C406.188 56.938 406.878 56.614 407.382 55.966C407.886 55.318 408.138 54.436 408.138 53.32C408.138 52.192 407.88 51.31 407.364 50.674C406.86 50.026 406.158 49.702 405.258 49.702ZM421.983 50.062H418.653V58H417.123V50.062H413.793V48.712H421.983V50.062Z" fill="#053095"/>
</svg>
