<svg viewBox="0 0 149 111"  fill="none" xmlns="http://www.w3.org/2000/svg">
  <path fill-rule="evenodd" clip-rule="evenodd" d="M82.2764 66.3602L81.9463 80.7064L85.3076 85.3524V87.0883L83.4336 88.8241L77.7588 86.1693V81.4722L72.5234 71.4656H69.4932L68.667 69.5766L64.6445 68.6576L62.4404 69.5766L68.667 72.9972L67.6748 92.5L63.3223 90.9173V77.6432L51.8604 74.682L51.1992 77.6432L47.6729 76.8774L47.1768 73.3035L38.9121 70.6487L37.9199 83.7697L33.8975 82.5444L33.7324 63.6543H43.6504L47.0117 61.1526V58.3446L49.0508 57.4257V54.924L44.8623 53.8518L43.8711 49.0016L44.8623 46.1937L23.3184 16.0716L5.63086 34.1959L8.21973 65.1348L6.51172 69.8318H1.93848L0.230469 65.1348L2.54492 35.4722L1.88379 31.2347L19.4062 4.68646L25.4668 3.46118L27.1748 0.5H32.4102L62.6055 22.2491L71.3662 24.904V27.8652L69.1631 31.2858L60.8975 28.9373L61.0625 34.0938L65.6357 33.7875L73.2402 36.7486L72.9092 53.4434L66.1875 52.0139L64.4785 54.3624L64.8096 57.0172L62.7705 59.0594L66.959 59.6721L82.2764 66.3602ZM29.2139 10.3535L49.7666 34.0427L52.1357 23.1171L31.2529 8.31134L29.2139 10.3535Z" fill="url(#paint0_linear_951_4789)" />
  <path fill-rule="evenodd" clip-rule="evenodd" d="M148.846 53.9896L147.571 58.3125H143.25L141.643 61.0208L142.308 65.5521L144.69 66.125L146.021 69.3021V76.6458L136.546 81.0208L138.152 81.4375L138.484 84.4583L137.653 85.8125L143.084 96.4896L143.693 101.281L145.411 102.375L144.635 104.51L139.98 104.354L139.482 97.6875L138.374 96.9583H131.337L132.002 110.5H128.456V101.281L127.292 100.969L127.625 97.3229L120.699 97.8958L118.648 106.281H114.271L114.161 104.51L116.211 97.6875L120.921 86.6979L120.588 83.6771L121.253 81.3854L120.644 75.5521L108.897 63.3125L106.293 62.5312L95.1006 73.9896L95.5439 88.5729L92.8291 90.9688L89.6152 88.5729L89.9473 72.0104L97.9268 62.9479L102.913 55.0312L107.789 53.1042L111.113 50.5L127.292 52.4792L133.941 52.0104L135.104 51.2292H139.482L142.363 52.6354L148.846 53.9896ZM123.691 66.1771L125.021 59.3542L127.016 55.9167L120.09 55.2917L114.881 53.8854L110.726 57.7917L114.105 59.1458L113.44 60.9167L121.807 69.1458L123.691 66.1771Z" fill="url(#paint0_linear_951_4789)" />
  <defs>
    <linearGradient id="paint0_linear_951_4789" x1="102" y1="56" x2="178" y2="113" gradientUnits="userSpaceOnUse">
      <stop stop-color="#0938A7" stop-opacity="0.85"/>
      <stop offset="1" stop-color="#0938A7" stop-opacity="0.35"/>
    </linearGradient>
  </defs>
</svg>
