<svg viewBox="0 0 343 147" fill="none" xmlns="http://www.w3.org/2000/svg">
<path fill-rule="evenodd" clip-rule="evenodd" d="M57.4788 21.247L45.983 16.3519L44.6885 17.81L26.3574 3.33286V2.03096L14.1367 0L4.40153 7.86348L2.382 7.96763L0 10.0507V26.2984L2.74448 27.8607L4.76401 25.4652V10.6235L15.4312 7.65517L16.9847 8.85292L16.2598 10.5194L16.9847 11.7171L19.2632 11.8213L28.9983 27.8086V29.2667V30.3603H30.2929L32.7784 33.7973V37.7551L34.4355 50.1492L29.4643 62.2308L28.9983 66.1886L27.7037 67.6467L28.2733 69.9381L30.034 70.5109L33.2445 69.209L33.5034 62.7516L35.264 61.0851L39.562 60.8248L38.9924 63.1161L40.2869 64.7825L42.41 64.6784V72.9064L43.8599 74L45.6205 73.4272V69.9901L45.0509 60.304L50.4881 60.1999L51.4202 60.9289L51.9898 64.3659V68.0633H57.1163V65.6678L55.5628 60.6685L50.1256 49.316L51.2131 48.3786L58.2037 44.6812V35.4638L56.6503 33.9015H55.0968L54.7343 30.5686L56.4949 28.2773L58.152 29.0063L61 26.715V23.5904L57.4788 21.247ZM40.1316 21.1429L38.9406 22.4448L36.455 26.4025L32.6749 24.6319L24.8039 11.3526V7.91555H22.7844L21.7487 6.19704L24.5968 4.9993L41.0637 18.7474L40.1316 21.1429ZM180.916 57.5979L182.372 55.0804H186.168L187 49.8881L180.916 49.3112L178.42 48H173.896L172.7 49.2063L153.616 48.5769L146.596 53.4021L142.436 61.8462L135 71.2343L135.728 73.8566L135 87.3357L137.756 89.3811L140.98 87.3357V72.7552L150.6 60.7448L161.572 73.0175V79.049L160.74 80.3601L161.572 84.0839L156.684 96.4615L155.124 103.699L159.44 104.538L160.012 103.227L161.572 95.8846L166.824 95.1504L166.252 96.8287L167.344 98.6119L169.476 98.2448V108H173.428L172.44 94.049L177.796 93.6818L178.992 94.8881V101.864L184.14 101.759V100.08L183.048 97.5629L182.788 93L177.796 83.035L178.628 78.472H175.508L184.816 73.542V65.2028L183.724 63.1573L180.292 61.5839L180.864 60.7448V57.5979H180.916ZM164.952 57.7552L164.692 63.1573L162.924 66.7762L156.216 59.2238L155.852 56.4965L154.188 55.9196L157.516 51.7238L166.824 52.8252L164.952 57.7552ZM329.571 71L338.558 77.1801L343 78.3548V95.414L340.447 97.0484L337.69 94.3925L338.251 92.5027V80.2446L329.265 78.9167V82.1855L326.201 83.4113L318.645 98.9382L319.053 101.747L314.917 105.629L314.815 111.349L314.713 116.968L313.998 117.581L315.479 120.134L314.407 122.79L319.41 133.108V135.61L321.146 138.675V141.229H316.602L316.194 134.435L314.56 133.516L309.198 133.823V147H306.441V137.653L304.858 137.551V134.129H299.293L297.863 135.917L297.455 142.148L295.412 143.067H292.757L292.349 140.513L293.574 139.492V137.449L294.493 136.581V133.823L299.344 123.148L291.838 120.594V110.685L295.514 108.642L295.617 106.855L296.995 106.14L295.566 103.075L293.829 104.556L290.408 103.841L290 100.266L292.4 97.8145L294.034 97.2016L294.442 95.2607L296.638 94.4946L298.016 94.9032L302.408 90.664L304.297 92.7581L319.666 76.0564L319.921 73.8602L322.729 73.9624L329.571 71ZM302.51 93.5242L300.008 95.7715L301.029 96.3844L303.224 94.6479L302.51 93.5242ZM303.633 127.387L305.318 127.285V124.884H303.531L301.948 128.613L303.633 127.387ZM309.198 100.981L308.33 99.9086C308.33 99.9086 308.484 100.879 307.003 100.981L309.658 102.871L309.198 100.981ZM308.586 127.03L310.628 127.898H311.956L310.628 124.527H308.586V127.03ZM322.934 78.8656L323.853 78.5591L324.567 77.2312H322.168L307.718 92.7581L311.956 99.2446L314.202 98.0699L321.606 83.1048V80.9086L322.934 78.8656ZM325.282 75.2393H327.171L328.193 73.5538L325.282 75.2393ZM329.98 73.5538L328.652 75.6989L335.137 76.7715L329.98 73.5538Z" fill="url(#paint0_linear_951_4794)"/>
<defs>
<linearGradient id="paint0_linear_951_4794" x1="190" y1="56" x2="177.707" y2="100.574" gradientUnits="userSpaceOnUse">
<stop stop-color="#0938A7" stop-opacity="0.85"/>
<stop offset="1" stop-color="#0938A7" stop-opacity="0.35"/>
</linearGradient>
</defs>
</svg>
