<svg viewBox="0 0 119 77" fill="none" xmlns="http://www.w3.org/2000/svg">
  <path fill-rule="evenodd" clip-rule="evenodd" d="M57.3076 4.72919L55.6377 8.50519L51.707 8.00171L50.7383 10.1667L51.0078 14.8489L53.6455 16.4097L54.4531 17.7188V26.5295L46.8613 29.7014L47.9922 32.7222L46.8613 35.1892L51.6533 44.6545L53.8076 49.5886V53.3646L48.6924 53.2639L48.207 47.1215L47.1309 45.4097L40.7227 45.8629L41.3691 58.5H37.5996V49.5886L36.3076 49.2864V46.0642L30.4385 46.3663L29.3076 48.5312L28.8232 54.3715L24.5693 55.2778L23.0615 54.5226L25.5381 46.3663L30.4922 35.743L29.3613 33.2761L30.4922 30.3559L29.6846 24.5156L17.0303 12.533L6.15332 23.4583V38.059L3.19238 40.375L0.230469 37.3038L0.823242 21.7969L7.01465 15.3524L12.9385 5.73608L18.2686 3.11804L21.3916 0.5L36.5225 2.86633L39.3232 2.16144L43.1992 2.56421L45.084 1.3559L50.0381 1.80902L51.4385 3.42017H55.3154L57.3076 4.72919ZM33.2383 15.6545L34.207 9.26044L35.7686 5.88715L25 4.125L20.9072 7.85071L21.5 8.45483H23.1689V10.8212L30.9229 18.8767L33.2383 15.6545Z" fill="url(#paint0_linear_951_4789)"/>
  <path fill-rule="evenodd" clip-rule="evenodd" d="M118.691 22.0815L116.612 24.8304V24.7795H113.11L111.415 26.6631L112.181 31.3973L114.26 31.8046L116.612 35.0117L116.175 37.0988V42.5966L107.038 46.3127L108.132 47.2291L108.241 50.2834L107.476 51.9124L113.001 61.2791L112.728 64.4862L113.822 65.3516L113.713 66.4206L114.861 67.3369V70.4422L109.117 70.3404V63.6717L107.366 62.6536L100.691 62.959L101.458 75.7873L99.543 76.5L97.0264 75.7364L97.3545 66.4715L96.8623 63.519H90.3516L88.7646 66.4715L88.4912 72.5294L83.0752 72.2239L82.7471 69.8313L83.8408 68.9659V67.3369L84.9902 66.0134V63.519L90.0234 53.5414L89.5859 49.7234L89.9688 47.9418L89.3115 42.2403L77.4395 30.7355L74.7588 30.0229L62.8867 41.9349L63.3252 56.6976L59.6592 58.632L57.3066 56.4431V40.0004L64.1455 33.1281L71.0938 23.0997L77.7139 19.8926L79.7373 17.9581L96.9717 19.129L103.701 18.3654L107.147 17.5L111.251 17.9581L112.509 19.2817L118.09 19.5872L118.691 22.0815ZM92.7588 33.3826L94.3457 25.6959L96.4238 22.2852L83.4033 21.1143L79.4092 25.6959L90.1875 35.928L92.7588 33.3826Z" fill="url(#paint0_linear_951_4789)"/>
  <defs>
    <linearGradient id="paint0_linear_951_4789" x1="192" y1="56" x2="178" y2="113" gradientUnits="userSpaceOnUse">
      <stop stop-color="#0938A7" stop-opacity="0.85"/>
      <stop offset="1" stop-color="#0938A7" stop-opacity="0.35"/>
    </linearGradient>
  </defs>
</svg>
