<svg viewBox="0 0 344 174" fill="none" xmlns="http://www.w3.org/2000/svg">
  <path fill-rule="evenodd" clip-rule="evenodd" d="M76.1859 65.8602L75.8789 80.2064L79 84.8524V86.5882L77.2604 88.3241L71.9903 85.6693V80.9723L67.1295 70.9656H64.3154L63.5479 69.0766L59.8128 68.1576L57.7662 69.0766L63.5479 72.4972L62.6269 92L58.5849 90.4173V77.1432L47.9424 74.182L47.3284 77.1432L44.0538 76.3774L43.5933 72.8036L35.9184 70.1487L34.9974 83.2697L31.2623 82.0444L31.1088 63.1543H40.3187L43.4398 60.6526V57.8446L45.3329 56.9256V54.424L41.4443 53.3518L40.5233 48.5017L41.4443 45.6937L21.4385 15.5716L5.01425 33.6959L7.41904 64.6348L5.8329 69.3319H1.58614L0 64.6348L2.14896 34.9723L1.53497 30.7347L17.8057 4.18646L23.4339 2.96115L25.0201 0H29.8808L57.9197 21.7492L66.0551 24.404V27.3651L64.0084 30.7858L56.3336 28.4373L56.4871 33.5938L60.7338 33.2875L67.7947 36.2486L67.4877 52.9434L61.2455 51.5139L59.6593 53.8624L59.9663 56.5172L58.0732 58.5594L61.9618 59.172L76.1859 65.8602ZM26.9132 9.8535L45.9981 33.5427L48.1982 22.6171L28.8063 7.81132L26.9132 9.8535ZM136.817 57.8125L138 53.4896L131.98 52.1354L129.305 50.7292H125.24L124.16 51.5104L117.986 51.9792L102.963 50L99.8756 52.6042L95.348 54.5312L90.7175 62.4479L83.3087 71.5104L83 88.0729L85.9841 90.4688L88.5051 88.0729L88.0935 73.4896L98.4864 62.0312L100.905 62.8125L111.812 75.0521L112.378 80.8854L111.761 83.1771L112.069 86.1979L107.696 97.1875L105.792 104.01L105.895 105.781H109.96L111.863 97.3958L118.295 96.8229L117.986 100.469L119.066 100.781V110H122.359L121.742 96.4583H128.276L129.305 97.1875L129.768 103.854L134.09 104.01L134.81 101.875L133.215 100.781L132.649 95.9896L127.607 85.3125L128.379 83.9583L128.07 80.9375L126.578 80.5208L135.376 76.1458V68.8021L134.141 65.625L131.929 65.0521L131.312 60.5208L132.804 57.8125H136.817ZM115.877 58.8542L114.642 65.6771L112.892 68.6458L105.123 60.4167L105.741 58.6458L102.602 57.2917L106.461 53.3854L111.297 54.7917L117.729 55.4167L115.877 58.8542ZM287 102.229L285.45 106.005L281.8 105.502L280.9 107.667L281.15 112.349L283.6 113.91L284.35 115.219V124.03L277.3 127.201L278.35 130.222L277.3 132.689L281.75 142.155L283.75 147.089V150.865L279 150.764L278.55 144.622L277.55 142.91L271.6 143.363L272.2 156H268.7V147.089L267.5 146.786V143.564L262.05 143.866L261 146.031L260.55 151.872L256.6 152.778L255.2 152.023L257.5 143.866L262.1 133.243L261.05 130.776L262.1 127.856L261.35 122.016L249.6 110.033L239.5 120.958V135.559L236.75 137.875L234 134.804L234.55 119.297L240.3 112.852L245.8 103.236L250.75 100.618L253.65 98L267.7 100.366L270.3 99.6615L273.9 100.064L275.65 98.8559L280.25 99.309L281.55 100.92H285.15L287 102.229ZM264.65 113.155L265.55 106.76L267 103.387L257 101.625L253.2 105.351L253.75 105.955H255.3V108.321L262.5 116.377L264.65 113.155ZM344 119.582L342.07 122.33V122.28H338.818L337.243 124.163L337.955 128.897L339.885 129.305L342.07 132.512L341.663 134.599V140.097L333.179 143.813L334.195 144.729L334.297 147.783L333.586 149.412L338.717 158.779L338.463 161.986L339.479 162.852L339.377 163.921L340.444 164.837V167.942L335.11 167.84V161.172L333.484 160.154L327.286 160.459L327.997 173.287L326.219 174L323.882 173.236L324.187 163.972L323.73 161.019H317.685L316.211 163.972L315.957 170.029L310.928 169.724L310.623 167.331L311.639 166.466V164.837L312.706 163.513V161.019L317.38 151.041L316.973 147.223L317.329 145.442L316.719 139.74L305.695 128.236L303.206 127.523L292.182 139.435L292.588 154.198L289.184 156.132L287 153.943V137.5L293.35 130.628L299.802 120.6L305.949 117.393L307.829 115.458L323.832 116.629L330.08 115.865L333.281 115L337.091 115.458L338.259 116.782L343.441 117.087L344 119.582ZM319.92 130.883L321.393 123.196L323.324 119.785L311.233 118.614L307.524 123.196L317.532 133.428L319.92 130.883Z" fill="url(#paint0_linear_951_4789)"/>
  <defs>
    <linearGradient id="paint0_linear_951_4789" x1="192" y1="56" x2="178" y2="113" gradientUnits="userSpaceOnUse">
      <stop stop-color="#0938A7" stop-opacity="0.85"/>
      <stop offset="1" stop-color="#0938A7" stop-opacity="0.35"/>
    </linearGradient>
  </defs>
</svg>
