<svg viewBox="0 0 78 51" fill="none" xmlns="http://www.w3.org/2000/svg">
<path d="M0 34.986V7.038L69.6902 0L71.6784 2.499V4.386L78 14.433V42.024L65.4079 43.248L65.5608 44.421L67.702 45.9V47.073H66.1726L61.8902 46.767V43.503L45.9843 44.676L46.4431 46.206L49.0431 47.481L49.502 49.215H47.6157L46.0353 48.348H43.3333L42.4157 45.135L27.5294 46.308L28.1412 47.787L30.0784 49.215L30.3843 50.694L28.8549 51L27.4275 49.878L24.6235 50.184L23.451 46.716L8.25882 47.787L0 34.986Z" fill="url(#paint0_linear_951_4788)"/>
<defs>
<linearGradient id="paint0_linear_951_4788" x1="42" y1="3" x2="51" y2="47.5" gradientUnits="userSpaceOnUse">
<stop stop-color="#0938A7" stop-opacity="0.85"/>
<stop offset="0.984301" stop-color="#0938A7" stop-opacity="0.35"/>
</linearGradient>
</defs>
</svg>
