<svg width="103" height="56" viewBox="0 0 103 56" fill="none" xmlns="http://www.w3.org/2000/svg">
<path fill-rule="evenodd" clip-rule="evenodd" d="M34.5547 49.8512V22.2069L44.9624 17.5318L45.475 16.3122L47.1157 16.6171L49.1152 14.7368L51.7812 14.5336L72.2376 5.33575L72.5965 3.70962L75.3138 3.3539L75.7752 2.23593L78.4412 1.88022L83.8757 0L102.999 5.69147V33.3358L97.1032 36.029V38.3666L93.6682 37.7568V39.7895L89.5154 39.637L69.5716 48.6824V50.6642L68.9564 51.1724L65.9828 50.3593V52.2904L65.2137 52.7477L62.2401 52.2904L54.3959 56L34.5547 49.8512ZM13.0737 40.2468L0 36.1306V25.8148L13.5351 19.666L26.5062 23.7822V34.098L13.0737 40.2468Z" fill="url(#paint0_linear_951_4784)"/>
<defs>
<linearGradient id="paint0_linear_951_4784" x1="47" y1="7.5" x2="51.4996" y2="56" gradientUnits="userSpaceOnUse">
<stop stop-color="#0938A7" stop-opacity="0.85"/>
<stop offset="1" stop-color="#0938A7" stop-opacity="0.35"/>
</linearGradient>
</defs>
</svg>
