<svg width="165" height="87" viewBox="0 0 165 87" fill="none" xmlns="http://www.w3.org/2000/svg">
<path d="M0 11.6997C2.56 11.6997 4.64 11.4197 6.24 10.8597C7.92 10.2997 9.28 9.53968 10.32 8.57969C11.36 7.61969 12.2 6.49968 12.84 5.21969C13.48 3.93968 14.04 2.57968 14.52 1.13968H23.4V85.1397H10.2V21.0597H0V11.6997Z" fill="white"/>
<path d="M77.5781 64.2597C77.5781 71.3797 75.9381 76.8197 72.6581 80.5797C69.3781 84.2597 64.2981 86.0997 57.4181 86.0997C50.9381 86.0997 46.0181 84.2997 42.6581 80.6997C39.3781 77.0197 37.7381 71.7797 37.7381 64.9797V62.8197H50.2181V65.8197C50.2181 68.8597 50.8181 71.0197 52.0181 72.2997C53.2981 73.4997 54.9781 74.0997 57.0581 74.0997C59.3781 74.0997 61.1781 73.3797 62.4581 71.9397C63.7381 70.4997 64.3781 67.7797 64.3781 63.7797V48.4197C62.0581 53.3797 57.9781 55.8597 52.1381 55.8597C47.2581 55.8597 43.5781 54.2197 41.0981 50.9397C38.6981 47.6597 37.4981 42.8997 37.4981 36.6597V21.2997C37.4981 14.4997 39.2181 9.29968 42.6581 5.69968C46.0981 2.01969 51.0581 0.179688 57.5381 0.179688C64.0181 0.179688 68.9781 2.01969 72.4181 5.69968C75.8581 9.29968 77.5781 14.4997 77.5781 21.2997V64.2597ZM57.5381 43.8597C59.6181 43.8597 61.2581 43.2597 62.4581 42.0597C63.7381 40.7797 64.3781 38.6197 64.3781 35.5797V20.4597C64.3781 17.4197 63.7381 15.2997 62.4581 14.0997C61.2581 12.8997 59.6181 12.2997 57.5381 12.2997C55.4581 12.2997 53.7781 12.8997 52.4981 14.0997C51.2981 15.2997 50.6981 17.4197 50.6981 20.4597V35.5797C50.6981 38.6197 51.2981 40.7797 52.4981 42.0597C53.7781 43.2597 55.4581 43.8597 57.5381 43.8597Z" fill="white"/>
<path d="M97.6763 58.0197V65.8197C97.6763 68.8597 98.2763 70.9797 99.4763 72.1797C100.756 73.3797 102.436 73.9797 104.516 73.9797C106.596 73.9797 108.236 73.3797 109.436 72.1797C110.716 70.9797 111.356 68.8597 111.356 65.8197V47.3397C111.356 44.2997 110.716 42.1797 109.436 40.9797C108.236 39.6997 106.596 39.0597 104.516 39.0597C102.436 39.0597 100.756 39.6997 99.4763 40.9797C98.2763 42.1797 97.6763 44.2997 97.6763 47.3397V49.8597H85.1963L87.5963 1.13968H122.396V13.1397H99.4763L98.3963 33.1797C100.876 29.0997 104.716 27.0597 109.916 27.0597C114.796 27.0597 118.436 28.6997 120.836 31.9797C123.316 35.2597 124.556 40.0197 124.556 46.2597V64.9797C124.556 71.7797 122.876 77.0197 119.516 80.6997C116.236 84.2997 111.356 86.0997 104.876 86.0997C98.3963 86.0997 93.4763 84.2997 90.1163 80.6997C86.8363 77.0197 85.1963 71.7797 85.1963 64.9797V58.0197H97.6763Z" fill="white"/>
<path d="M140.934 11.6997C143.494 11.6997 145.574 11.4197 147.174 10.8597C148.854 10.2997 150.214 9.53968 151.254 8.57969C152.294 7.61969 153.134 6.49968 153.774 5.21969C154.414 3.93968 154.974 2.57968 155.454 1.13968H164.334V85.1397H151.134V21.0597H140.934V11.6997Z" fill="white"/>
</svg>
