<svg width="172" height="86" viewBox="0 0 172 86" fill="none" xmlns="http://www.w3.org/2000/svg">
<path d="M0 11.52C2.56 11.52 4.64 11.24 6.24 10.68C7.92 10.12 9.28 9.36 10.32 8.4C11.36 7.44 12.2 6.32 12.84 5.04C13.48 3.76 14.04 2.4 14.52 0.959995H23.4V84.96H10.2V20.88H0V11.52Z" fill="white"/>
<path d="M77.5781 64.08C77.5781 71.2 75.9381 76.64 72.6581 80.4C69.3781 84.08 64.2981 85.92 57.4181 85.92C50.9381 85.92 46.0181 84.12 42.6581 80.52C39.3781 76.84 37.7381 71.6 37.7381 64.8V62.64H50.2181V65.64C50.2181 68.68 50.8181 70.84 52.0181 72.12C53.2981 73.32 54.9781 73.92 57.0581 73.92C59.3781 73.92 61.1781 73.2 62.4581 71.76C63.7381 70.32 64.3781 67.6 64.3781 63.6V48.24C62.0581 53.2 57.9781 55.68 52.1381 55.68C47.2581 55.68 43.5781 54.04 41.0981 50.76C38.6981 47.48 37.4981 42.72 37.4981 36.48V21.12C37.4981 14.32 39.2181 9.11999 42.6581 5.51999C46.0981 1.84 51.0581 0 57.5381 0C64.0181 0 68.9781 1.84 72.4181 5.51999C75.8581 9.11999 77.5781 14.32 77.5781 21.12V64.08ZM57.5381 43.68C59.6181 43.68 61.2581 43.08 62.4581 41.88C63.7381 40.6 64.3781 38.44 64.3781 35.4V20.28C64.3781 17.24 63.7381 15.12 62.4581 13.92C61.2581 12.72 59.6181 12.12 57.5381 12.12C55.4581 12.12 53.7781 12.72 52.4981 13.92C51.2981 15.12 50.6981 17.24 50.6981 20.28V35.4C50.6981 38.44 51.2981 40.6 52.4981 41.88C53.7781 43.08 55.4581 43.68 57.5381 43.68Z" fill="white"/>
<path d="M97.6763 57.84V65.64C97.6763 68.68 98.2763 70.8 99.4763 72C100.756 73.2 102.436 73.8 104.516 73.8C106.596 73.8 108.236 73.2 109.436 72C110.716 70.8 111.356 68.68 111.356 65.64V47.16C111.356 44.12 110.716 42 109.436 40.8C108.236 39.52 106.596 38.88 104.516 38.88C102.436 38.88 100.756 39.52 99.4763 40.8C98.2763 42 97.6763 44.12 97.6763 47.16V49.68H85.1963L87.5963 0.959995H122.396V12.96H99.4763L98.3963 33C100.876 28.92 104.716 26.88 109.916 26.88C114.796 26.88 118.436 28.52 120.836 31.8C123.316 35.08 124.556 39.84 124.556 46.08V64.8C124.556 71.6 122.876 76.84 119.516 80.52C116.236 84.12 111.356 85.92 104.876 85.92C98.3963 85.92 93.4763 84.12 90.1163 80.52C86.8363 76.84 85.1963 71.6 85.1963 64.8V57.84H97.6763Z" fill="white"/>
<path d="M171.534 0.959995V12.48L152.094 84.96H138.894L158.214 12.96H131.934V0.959995H171.534Z" fill="white"/>
</svg>
