<svg width="298" height="87" viewBox="0 0 298 87" fill="none" xmlns="http://www.w3.org/2000/svg">
<path d="M0 11.6997C2.56 11.6997 4.64 11.4197 6.24 10.8597C7.92 10.2997 9.28 9.53968 10.32 8.57969C11.36 7.61969 12.2 6.49968 12.84 5.21969C13.48 3.93968 14.04 2.57968 14.52 1.13968H23.4V85.1397H10.2V21.0597H0V11.6997Z" fill="white"/>
<path d="M77.5781 64.2597C77.5781 71.3797 75.9381 76.8197 72.6581 80.5797C69.3781 84.2597 64.2981 86.0997 57.4181 86.0997C50.9381 86.0997 46.0181 84.2997 42.6581 80.6997C39.3781 77.0197 37.7381 71.7797 37.7381 64.9797V62.8197H50.2181V65.8197C50.2181 68.8597 50.8181 71.0197 52.0181 72.2997C53.2981 73.4997 54.9781 74.0997 57.0581 74.0997C59.3781 74.0997 61.1781 73.3797 62.4581 71.9397C63.7381 70.4997 64.3781 67.7797 64.3781 63.7797V48.4197C62.0581 53.3797 57.9781 55.8597 52.1381 55.8597C47.2581 55.8597 43.5781 54.2197 41.0981 50.9397C38.6981 47.6597 37.4981 42.8997 37.4981 36.6597V21.2997C37.4981 14.4997 39.2181 9.29968 42.6581 5.69968C46.0981 2.01969 51.0581 0.179688 57.5381 0.179688C64.0181 0.179688 68.9781 2.01969 72.4181 5.69968C75.8581 9.29968 77.5781 14.4997 77.5781 21.2997V64.2597ZM57.5381 43.8597C59.6181 43.8597 61.2581 43.2597 62.4581 42.0597C63.7381 40.7797 64.3781 38.6197 64.3781 35.5797V20.4597C64.3781 17.4197 63.7381 15.2997 62.4581 14.0997C61.2581 12.8997 59.6181 12.2997 57.5381 12.2997C55.4581 12.2997 53.7781 12.8997 52.4981 14.0997C51.2981 15.2997 50.6981 17.4197 50.6981 20.4597V35.5797C50.6981 38.6197 51.2981 40.7797 52.4981 42.0597C53.7781 43.2597 55.4581 43.8597 57.5381 43.8597Z" fill="white"/>
<path d="M84.9563 22.0197C84.9563 14.8997 86.5963 9.49969 89.8763 5.81969C93.1563 2.05969 98.2363 0.179688 105.116 0.179688C111.596 0.179688 116.476 2.01969 119.756 5.69968C123.116 9.29968 124.796 14.4997 124.796 21.2997V23.4597H112.316V20.4597C112.316 17.4197 111.676 15.2997 110.396 14.0997C109.196 12.8197 107.556 12.1797 105.476 12.1797C103.156 12.1797 101.356 12.8997 100.076 14.3397C98.7963 15.7797 98.1563 18.4997 98.1563 22.4997V37.8597C100.476 32.8997 104.556 30.4197 110.396 30.4197C115.276 30.4197 118.916 32.0597 121.316 35.3397C123.796 38.6197 125.036 43.3797 125.036 49.6197V64.9797C125.036 71.7797 123.316 77.0197 119.876 80.6997C116.436 84.2997 111.476 86.0997 104.996 86.0997C98.5163 86.0997 93.5563 84.2997 90.1163 80.6997C86.6763 77.0197 84.9563 71.7797 84.9563 64.9797V22.0197ZM104.996 42.4197C102.916 42.4197 101.236 43.0597 99.9563 44.3397C98.7563 45.5397 98.1563 47.6597 98.1563 50.6997V65.8197C98.1563 68.8597 98.7563 70.9797 99.9563 72.1797C101.236 73.3797 102.916 73.9797 104.996 73.9797C107.076 73.9797 108.716 73.3797 109.916 72.1797C111.196 70.9797 111.836 68.8597 111.836 65.8197V50.6997C111.836 47.6597 111.196 45.5397 109.916 44.3397C108.716 43.0597 107.076 42.4197 104.996 42.4197Z" fill="white"/>
<path d="M144.894 65.8197C144.894 68.8597 145.494 71.0197 146.694 72.2997C147.974 73.4997 149.654 74.0997 151.734 74.0997C153.814 74.0997 155.454 73.4997 156.654 72.2997C157.934 71.0197 158.574 68.8597 158.574 65.8197V20.4597C158.574 17.4197 157.934 15.2997 156.654 14.0997C155.454 12.8197 153.814 12.1797 151.734 12.1797C149.654 12.1797 147.974 12.8197 146.694 14.0997C145.494 15.2997 144.894 17.4197 144.894 20.4597V65.8197ZM131.694 21.2997C131.694 14.4997 133.414 9.29968 136.854 5.69968C140.294 2.01969 145.254 0.179688 151.734 0.179688C158.214 0.179688 163.174 2.01969 166.614 5.69968C170.054 9.29968 171.774 14.4997 171.774 21.2997V64.9797C171.774 71.7797 170.054 77.0197 166.614 80.6997C163.174 84.2997 158.214 86.0997 151.734 86.0997C145.254 86.0997 140.294 84.2997 136.854 80.6997C133.414 77.0197 131.694 71.7797 131.694 64.9797V21.2997Z" fill="white"/>
<path d="M179.152 37.1397H203.152V49.1397H179.152V37.1397Z" fill="white"/>
<path d="M250.256 1.13968V12.6597L230.816 85.1397H217.616L236.936 13.1397H210.656V1.13968H250.256Z" fill="white"/>
<path d="M270.594 65.8197C270.594 68.8597 271.194 71.0197 272.394 72.2997C273.674 73.4997 275.354 74.0997 277.434 74.0997C279.514 74.0997 281.154 73.4997 282.354 72.2997C283.634 71.0197 284.274 68.8597 284.274 65.8197V20.4597C284.274 17.4197 283.634 15.2997 282.354 14.0997C281.154 12.8197 279.514 12.1797 277.434 12.1797C275.354 12.1797 273.674 12.8197 272.394 14.0997C271.194 15.2997 270.594 17.4197 270.594 20.4597V65.8197ZM257.394 21.2997C257.394 14.4997 259.114 9.29968 262.554 5.69968C265.994 2.01969 270.954 0.179688 277.434 0.179688C283.914 0.179688 288.874 2.01969 292.314 5.69968C295.754 9.29968 297.474 14.4997 297.474 21.2997V64.9797C297.474 71.7797 295.754 77.0197 292.314 80.6997C288.874 84.2997 283.914 86.0997 277.434 86.0997C270.954 86.0997 265.994 84.2997 262.554 80.6997C259.114 77.0197 257.394 71.7797 257.394 64.9797V21.2997Z" fill="white"/>
</svg>
