<svg width="172" height="87" viewBox="0 0 172 87" fill="none" xmlns="http://www.w3.org/2000/svg">
<path d="M0 11.6997C2.56 11.6997 4.64 11.4197 6.24 10.8597C7.92 10.2997 9.28 9.53968 10.32 8.57969C11.36 7.61969 12.2 6.49968 12.84 5.21969C13.48 3.93968 14.04 2.57968 14.52 1.13968H23.4V85.1397H10.2V21.0597H0V11.6997Z" fill="white"/>
<path d="M77.5781 64.2597C77.5781 71.3797 75.9381 76.8197 72.6581 80.5797C69.3781 84.2597 64.2981 86.0997 57.4181 86.0997C50.9381 86.0997 46.0181 84.2997 42.6581 80.6997C39.3781 77.0197 37.7381 71.7797 37.7381 64.9797V62.8197H50.2181V65.8197C50.2181 68.8597 50.8181 71.0197 52.0181 72.2997C53.2981 73.4997 54.9781 74.0997 57.0581 74.0997C59.3781 74.0997 61.1781 73.3797 62.4581 71.9397C63.7381 70.4997 64.3781 67.7797 64.3781 63.7797V48.4197C62.0581 53.3797 57.9781 55.8597 52.1381 55.8597C47.2581 55.8597 43.5781 54.2197 41.0981 50.9397C38.6981 47.6597 37.4981 42.8997 37.4981 36.6597V21.2997C37.4981 14.4997 39.2181 9.29968 42.6581 5.69968C46.0981 2.01969 51.0581 0.179688 57.5381 0.179688C64.0181 0.179688 68.9781 2.01969 72.4181 5.69968C75.8581 9.29968 77.5781 14.4997 77.5781 21.2997V64.2597ZM57.5381 43.8597C59.6181 43.8597 61.2581 43.2597 62.4581 42.0597C63.7381 40.7797 64.3781 38.6197 64.3781 35.5797V20.4597C64.3781 17.4197 63.7381 15.2997 62.4581 14.0997C61.2581 12.8997 59.6181 12.2997 57.5381 12.2997C55.4581 12.2997 53.7781 12.8997 52.4981 14.0997C51.2981 15.2997 50.6981 17.4197 50.6981 20.4597V35.5797C50.6981 38.6197 51.2981 40.7797 52.4981 42.0597C53.7781 43.2597 55.4581 43.8597 57.5381 43.8597Z" fill="white"/>
<path d="M125.396 64.9797C125.396 71.7797 123.636 77.0197 120.116 80.6997C116.596 84.2997 111.476 86.0997 104.756 86.0997C98.0363 86.0997 92.9163 84.2997 89.3963 80.6997C85.8763 77.0197 84.1163 71.7797 84.1163 64.9797V58.3797C84.1163 54.2997 84.7563 50.7797 86.0363 47.8197C87.3163 44.7797 89.3963 42.4597 92.2763 40.8597C86.8363 37.8997 84.1163 32.2597 84.1163 23.9397V21.2997C84.1163 14.4997 85.8763 9.29968 89.3963 5.69968C92.9163 2.01969 98.0363 0.179688 104.756 0.179688C111.476 0.179688 116.596 2.01969 120.116 5.69968C123.636 9.29968 125.396 14.4997 125.396 21.2997V23.9397C125.396 32.1797 122.676 37.8197 117.236 40.8597C120.116 42.4597 122.196 44.7797 123.476 47.8197C124.756 50.7797 125.396 54.2997 125.396 58.3797V64.9797ZM97.3163 64.6197C97.3163 68.3797 98.0363 70.8997 99.4763 72.1797C100.916 73.4597 102.676 74.0997 104.756 74.0997C106.836 74.0997 108.556 73.4597 109.916 72.1797C111.356 70.8997 112.116 68.3797 112.196 64.6197V56.8197C112.196 53.4597 111.516 51.0597 110.156 49.6197C108.876 48.0997 107.076 47.3397 104.756 47.3397C102.436 47.3397 100.596 48.0997 99.2363 49.6197C97.9563 51.0597 97.3163 53.4597 97.3163 56.8197V64.6197ZM97.3163 26.4597C97.3163 29.8197 97.9963 32.1397 99.3563 33.4197C100.796 34.6997 102.596 35.3397 104.756 35.3397C106.836 35.3397 108.596 34.6997 110.036 33.4197C111.476 32.1397 112.196 29.8197 112.196 26.4597V21.7797C112.196 18.0197 111.476 15.4997 110.036 14.2197C108.596 12.8597 106.836 12.1797 104.756 12.1797C102.676 12.1797 100.916 12.8597 99.4763 14.2197C98.0363 15.4997 97.3163 18.0197 97.3163 21.7797V26.4597Z" fill="white"/>
<path d="M158.214 21.7797C158.214 18.0197 157.574 15.4997 156.294 14.2197C155.094 12.8597 153.454 12.1797 151.374 12.1797C149.294 12.1797 147.614 12.8197 146.334 14.0997C145.134 15.2997 144.534 17.4197 144.534 20.4597V25.8597H132.054V21.2997C132.054 14.4997 133.694 9.29968 136.974 5.69968C140.334 2.01969 145.254 0.179688 151.734 0.179688C158.214 0.179688 163.094 2.01969 166.374 5.69968C169.734 9.29968 171.414 14.4997 171.414 21.2997V23.4597C171.414 32.4197 168.334 38.1797 162.174 40.7397C165.534 42.1797 167.894 44.4197 169.254 47.4597C170.694 50.4197 171.414 54.0597 171.414 58.3797V64.9797C171.414 71.7797 169.734 77.0197 166.374 80.6997C163.094 84.2997 158.214 86.0997 151.734 86.0997C145.254 86.0997 140.334 84.2997 136.974 80.6997C133.694 77.0197 132.054 71.7797 132.054 64.9797V58.0197H144.534V65.8197C144.534 68.8597 145.134 71.0197 146.334 72.2997C147.614 73.4997 149.294 74.0997 151.374 74.0997C153.454 74.0997 155.094 73.4597 156.294 72.1797C157.574 70.8997 158.214 68.3797 158.214 64.6197V58.0197C158.214 54.0997 157.534 51.3397 156.174 49.7397C154.814 48.1397 152.614 47.3397 149.574 47.3397H145.134V35.3397H150.294C152.774 35.3397 154.694 34.6997 156.054 33.4197C157.494 32.1397 158.214 29.8197 158.214 26.4597V21.7797Z" fill="white"/>
</svg>
