<svg width="298" height="87" viewBox="0 0 298 87" fill="none" xmlns="http://www.w3.org/2000/svg">
<path d="M0 11.6997C2.56 11.6997 4.64 11.4197 6.24 10.8597C7.92 10.2997 9.28 9.53968 10.32 8.57969C11.36 7.61969 12.2 6.49968 12.84 5.21969C13.48 3.93968 14.04 2.57968 14.52 1.13968H23.4V85.1397H10.2V21.0597H0V11.6997Z" fill="#053095"/>
<path d="M77.5781 64.2597C77.5781 71.3797 75.9381 76.8197 72.6581 80.5797C69.3781 84.2597 64.2981 86.0997 57.4181 86.0997C50.9381 86.0997 46.0181 84.2997 42.6581 80.6997C39.3781 77.0197 37.7381 71.7797 37.7381 64.9797V62.8197H50.2181V65.8197C50.2181 68.8597 50.8181 71.0197 52.0181 72.2997C53.2981 73.4997 54.9781 74.0997 57.0581 74.0997C59.3781 74.0997 61.1781 73.3797 62.4581 71.9397C63.7381 70.4997 64.3781 67.7797 64.3781 63.7797V48.4197C62.0581 53.3797 57.9781 55.8597 52.1381 55.8597C47.2581 55.8597 43.5781 54.2197 41.0981 50.9397C38.6981 47.6597 37.4981 42.8997 37.4981 36.6597V21.2997C37.4981 14.4997 39.2181 9.29968 42.6581 5.69968C46.0981 2.01969 51.0581 0.179688 57.5381 0.179688C64.0181 0.179688 68.9781 2.01969 72.4181 5.69968C75.8581 9.29968 77.5781 14.4997 77.5781 21.2997V64.2597ZM57.5381 43.8597C59.6181 43.8597 61.2581 43.2597 62.4581 42.0597C63.7381 40.7797 64.3781 38.6197 64.3781 35.5797V20.4597C64.3781 17.4197 63.7381 15.2997 62.4581 14.0997C61.2581 12.8997 59.6181 12.2997 57.5381 12.2997C55.4581 12.2997 53.7781 12.8997 52.4981 14.0997C51.2981 15.2997 50.6981 17.4197 50.6981 20.4597V35.5797C50.6981 38.6197 51.2981 40.7797 52.4981 42.0597C53.7781 43.2597 55.4581 43.8597 57.5381 43.8597Z" fill="#053095"/>
<path d="M124.556 64.2597C124.556 71.3797 122.916 76.8197 119.636 80.5797C116.356 84.2597 111.276 86.0997 104.396 86.0997C97.9163 86.0997 92.9963 84.2997 89.6363 80.6997C86.3563 77.0197 84.7163 71.7797 84.7163 64.9797V62.8197H97.1963V65.8197C97.1963 68.8597 97.7963 71.0197 98.9963 72.2997C100.276 73.4997 101.956 74.0997 104.036 74.0997C106.356 74.0997 108.156 73.3797 109.436 71.9397C110.716 70.4997 111.356 67.7797 111.356 63.7797V48.4197C109.036 53.3797 104.956 55.8597 99.1163 55.8597C94.2363 55.8597 90.5563 54.2197 88.0763 50.9397C85.6763 47.6597 84.4763 42.8997 84.4763 36.6597V21.2997C84.4763 14.4997 86.1963 9.29968 89.6363 5.69968C93.0763 2.01969 98.0363 0.179688 104.516 0.179688C110.996 0.179688 115.956 2.01969 119.396 5.69968C122.836 9.29968 124.556 14.4997 124.556 21.2997V64.2597ZM104.516 43.8597C106.596 43.8597 108.236 43.2597 109.436 42.0597C110.716 40.7797 111.356 38.6197 111.356 35.5797V20.4597C111.356 17.4197 110.716 15.2997 109.436 14.0997C108.236 12.8997 106.596 12.2997 104.516 12.2997C102.436 12.2997 100.756 12.8997 99.4763 14.0997C98.2763 15.2997 97.6763 17.4197 97.6763 20.4597V35.5797C97.6763 38.6197 98.2763 40.7797 99.4763 42.0597C100.756 43.2597 102.436 43.8597 104.516 43.8597Z" fill="#053095"/>
<path d="M144.894 65.8197C144.894 68.8597 145.494 71.0197 146.694 72.2997C147.974 73.4997 149.654 74.0997 151.734 74.0997C153.814 74.0997 155.454 73.4997 156.654 72.2997C157.934 71.0197 158.574 68.8597 158.574 65.8197V20.4597C158.574 17.4197 157.934 15.2997 156.654 14.0997C155.454 12.8197 153.814 12.1797 151.734 12.1797C149.654 12.1797 147.974 12.8197 146.694 14.0997C145.494 15.2997 144.894 17.4197 144.894 20.4597V65.8197ZM131.694 21.2997C131.694 14.4997 133.414 9.29968 136.854 5.69968C140.294 2.01969 145.254 0.179688 151.734 0.179688C158.214 0.179688 163.174 2.01969 166.614 5.69968C170.054 9.29968 171.774 14.4997 171.774 21.2997V64.9797C171.774 71.7797 170.054 77.0197 166.614 80.6997C163.174 84.2997 158.214 86.0997 151.734 86.0997C145.254 86.0997 140.294 84.2997 136.854 80.6997C133.414 77.0197 131.694 71.7797 131.694 64.9797V21.2997Z" fill="#053095"/>
<path d="M179.152 37.1397H203.152V49.1397H179.152V37.1397Z" fill="#053095"/>
<path d="M250.256 64.2597C250.256 71.3797 248.616 76.8197 245.336 80.5797C242.056 84.2597 236.976 86.0997 230.096 86.0997C223.616 86.0997 218.696 84.2997 215.336 80.6997C212.056 77.0197 210.416 71.7797 210.416 64.9797V62.8197H222.896V65.8197C222.896 68.8597 223.496 71.0197 224.696 72.2997C225.976 73.4997 227.656 74.0997 229.736 74.0997C232.056 74.0997 233.856 73.3797 235.136 71.9397C236.416 70.4997 237.056 67.7797 237.056 63.7797V48.4197C234.736 53.3797 230.656 55.8597 224.816 55.8597C219.936 55.8597 216.256 54.2197 213.776 50.9397C211.376 47.6597 210.176 42.8997 210.176 36.6597V21.2997C210.176 14.4997 211.896 9.29968 215.336 5.69968C218.776 2.01969 223.736 0.179688 230.216 0.179688C236.696 0.179688 241.656 2.01969 245.096 5.69968C248.536 9.29968 250.256 14.4997 250.256 21.2997V64.2597ZM230.216 43.8597C232.296 43.8597 233.936 43.2597 235.136 42.0597C236.416 40.7797 237.056 38.6197 237.056 35.5797V20.4597C237.056 17.4197 236.416 15.2997 235.136 14.0997C233.936 12.8997 232.296 12.2997 230.216 12.2997C228.136 12.2997 226.456 12.8997 225.176 14.0997C223.976 15.2997 223.376 17.4197 223.376 20.4597V35.5797C223.376 38.6197 223.976 40.7797 225.176 42.0597C226.456 43.2597 228.136 43.8597 230.216 43.8597Z" fill="#053095"/>
<path d="M297.234 1.13968V12.6597L277.794 85.1397H264.594L283.914 13.1397H257.634V1.13968H297.234Z" fill="#053095"/>
</svg>
