<svg width="172" height="86" viewBox="0 0 172 86" fill="none" xmlns="http://www.w3.org/2000/svg">
<path d="M0 11.52C2.56 11.52 4.64 11.24 6.24 10.68C7.92 10.12 9.28 9.36 10.32 8.4C11.36 7.44 12.2 6.32 12.84 5.04C13.48 3.76 14.04 2.4 14.52 0.959995H23.4V84.96H10.2V20.88H0V11.52Z" fill="#053095"/>
<path d="M77.5781 64.08C77.5781 71.2 75.9381 76.64 72.6581 80.4C69.3781 84.08 64.2981 85.92 57.4181 85.92C50.9381 85.92 46.0181 84.12 42.6581 80.52C39.3781 76.84 37.7381 71.6 37.7381 64.8V62.64H50.2181V65.64C50.2181 68.68 50.8181 70.84 52.0181 72.12C53.2981 73.32 54.9781 73.92 57.0581 73.92C59.3781 73.92 61.1781 73.2 62.4581 71.76C63.7381 70.32 64.3781 67.6 64.3781 63.6V48.24C62.0581 53.2 57.9781 55.68 52.1381 55.68C47.2581 55.68 43.5781 54.04 41.0981 50.76C38.6981 47.48 37.4981 42.72 37.4981 36.48V21.12C37.4981 14.32 39.2181 9.12 42.6581 5.51999C46.0981 1.84 51.0581 0 57.5381 0C64.0181 0 68.9781 1.84 72.4181 5.51999C75.8581 9.12 77.5781 14.32 77.5781 21.12V64.08ZM57.5381 43.68C59.6181 43.68 61.2581 43.08 62.4581 41.88C63.7381 40.6 64.3781 38.44 64.3781 35.4V20.28C64.3781 17.24 63.7381 15.12 62.4581 13.92C61.2581 12.72 59.6181 12.12 57.5381 12.12C55.4581 12.12 53.7781 12.72 52.4981 13.92C51.2981 15.12 50.6981 17.24 50.6981 20.28V35.4C50.6981 38.44 51.2981 40.6 52.4981 41.88C53.7781 43.08 55.4581 43.68 57.5381 43.68Z" fill="#053095"/>
<path d="M124.556 64.08C124.556 71.2 122.916 76.64 119.636 80.4C116.356 84.08 111.276 85.92 104.396 85.92C97.9163 85.92 92.9963 84.12 89.6363 80.52C86.3563 76.84 84.7163 71.6 84.7163 64.8V62.64H97.1963V65.64C97.1963 68.68 97.7963 70.84 98.9963 72.12C100.276 73.32 101.956 73.92 104.036 73.92C106.356 73.92 108.156 73.2 109.436 71.76C110.716 70.32 111.356 67.6 111.356 63.6V48.24C109.036 53.2 104.956 55.68 99.1163 55.68C94.2363 55.68 90.5563 54.04 88.0763 50.76C85.6763 47.48 84.4763 42.72 84.4763 36.48V21.12C84.4763 14.32 86.1963 9.12 89.6363 5.51999C93.0763 1.84 98.0363 0 104.516 0C110.996 0 115.956 1.84 119.396 5.51999C122.836 9.12 124.556 14.32 124.556 21.12V64.08ZM104.516 43.68C106.596 43.68 108.236 43.08 109.436 41.88C110.716 40.6 111.356 38.44 111.356 35.4V20.28C111.356 17.24 110.716 15.12 109.436 13.92C108.236 12.72 106.596 12.12 104.516 12.12C102.436 12.12 100.756 12.72 99.4763 13.92C98.2763 15.12 97.6763 17.24 97.6763 20.28V35.4C97.6763 38.44 98.2763 40.6 99.4763 41.88C100.756 43.08 102.436 43.68 104.516 43.68Z" fill="#053095"/>
<path d="M171.534 0.959995V12.48L152.094 84.96H138.894L158.214 12.96H131.934V0.959995H171.534Z" fill="#053095"/>
</svg>
