<svg width="181" height="86" viewBox="0 0 181 86" fill="none" xmlns="http://www.w3.org/2000/svg">
<path d="M26.16 21.6C26.16 17.84 25.52 15.32 24.24 14.04C23.04 12.68 21.4 12 19.32 12C17.24 12 15.56 12.64 14.28 13.92C13.08 15.12 12.48 17.24 12.48 20.28V29.28H0V21.12C0 14.32 1.64 9.12 4.92 5.51999C8.28 1.84 13.2 0 19.68 0C26.16 0 31.04 1.84 34.32 5.51999C37.68 9.12 39.36 14.32 39.36 21.12C39.36 25.52 38.72 29.52 37.44 33.12C36.16 36.64 34.52 39.88 32.52 42.84C30.6 45.72 28.48 48.4 26.16 50.88C23.92 53.36 21.8 55.72 19.8 57.96C17.88 60.2 16.28 62.4 15 64.56C13.72 66.64 13.08 68.84 13.08 71.16C13.08 71.96 13.12 72.56 13.2 72.96H38.16V84.96H0V74.64C0 70.56 0.64 66.96 1.92 63.84C3.2 60.72 4.8 57.88 6.72 55.32C8.72 52.68 10.84 50.24 13.08 48C15.32 45.68 17.4 43.24 19.32 40.68C21.32 38.12 22.96 35.32 24.24 32.28C25.52 29.24 26.16 25.68 26.16 21.6Z" fill="#053095"/>
<path d="M59.0981 65.64C59.0981 68.68 59.6981 70.84 60.8981 72.12C62.1781 73.32 63.8581 73.92 65.9381 73.92C68.0181 73.92 69.6581 73.32 70.8581 72.12C72.1381 70.84 72.7781 68.68 72.7781 65.64V20.28C72.7781 17.24 72.1381 15.12 70.8581 13.92C69.6581 12.64 68.0181 12 65.9381 12C63.8581 12 62.1781 12.64 60.8981 13.92C59.6981 15.12 59.0981 17.24 59.0981 20.28V65.64ZM45.8981 21.12C45.8981 14.32 47.6181 9.12 51.0581 5.51999C54.4981 1.84 59.4581 0 65.9381 0C72.4181 0 77.3781 1.84 80.8181 5.51999C84.2581 9.12 85.9781 14.32 85.9781 21.12V64.8C85.9781 71.6 84.2581 76.84 80.8181 80.52C77.3781 84.12 72.4181 85.92 65.9381 85.92C59.4581 85.92 54.4981 84.12 51.0581 80.52C47.6181 76.84 45.8981 71.6 45.8981 64.8V21.12Z" fill="#053095"/>
<path d="M106.076 65.64C106.076 68.68 106.676 70.84 107.876 72.12C109.156 73.32 110.836 73.92 112.916 73.92C114.996 73.92 116.636 73.32 117.836 72.12C119.116 70.84 119.756 68.68 119.756 65.64V20.28C119.756 17.24 119.116 15.12 117.836 13.92C116.636 12.64 114.996 12 112.916 12C110.836 12 109.156 12.64 107.876 13.92C106.676 15.12 106.076 17.24 106.076 20.28V65.64ZM92.8763 21.12C92.8763 14.32 94.5962 9.12 98.0362 5.51999C101.476 1.84 106.436 0 112.916 0C119.396 0 124.356 1.84 127.796 5.51999C131.236 9.12 132.956 14.32 132.956 21.12V64.8C132.956 71.6 131.236 76.84 127.796 80.52C124.356 84.12 119.396 85.92 112.916 85.92C106.436 85.92 101.476 84.12 98.0362 80.52C94.5962 76.84 92.8763 71.6 92.8763 64.8V21.12Z" fill="#053095"/>
<path d="M140.094 21.84C140.094 14.72 141.734 9.32 145.014 5.64C148.294 1.88 153.374 0 160.254 0C166.734 0 171.614 1.84 174.894 5.51999C178.254 9.12 179.934 14.32 179.934 21.12V23.28H167.454V20.28C167.454 17.24 166.814 15.12 165.534 13.92C164.334 12.64 162.694 12 160.614 12C158.294 12 156.494 12.72 155.214 14.16C153.934 15.6 153.294 18.32 153.294 22.32V37.68C155.614 32.72 159.694 30.24 165.534 30.24C170.414 30.24 174.054 31.88 176.454 35.16C178.934 38.44 180.174 43.2 180.174 49.44V64.8C180.174 71.6 178.454 76.84 175.014 80.52C171.574 84.12 166.614 85.92 160.134 85.92C153.654 85.92 148.694 84.12 145.254 80.52C141.814 76.84 140.094 71.6 140.094 64.8V21.84ZM160.134 42.24C158.054 42.24 156.374 42.88 155.094 44.16C153.894 45.36 153.294 47.48 153.294 50.52V65.64C153.294 68.68 153.894 70.8 155.094 72C156.374 73.2 158.054 73.8 160.134 73.8C162.214 73.8 163.854 73.2 165.054 72C166.334 70.8 166.974 68.68 166.974 65.64V50.52C166.974 47.48 166.334 45.36 165.054 44.16C163.854 42.88 162.214 42.24 160.134 42.24Z" fill="#053095"/>
</svg>
