<svg width="26" height="32" id='anchor' viewBox="0 0 26 32" fill="none" xmlns="http://www.w3.org/2000/svg">
<path fill-rule="evenodd" clip-rule="evenodd" d="M12.4469 0.0500473C8.98196 0.583702 7.84387 4.8849 10.5966 7.0429C10.7891 7.19378 10.8048 7.21776 10.7118 7.21794C10.6525 7.21808 9.8472 7.26931 8.92229 7.33187C7.99738 7.39444 7.1836 7.44568 7.11394 7.44582L6.98723 7.44604V8.19624V8.94644L7.22911 8.97257C7.36213 8.98696 8.41213 9.05989 9.56238 9.13464C10.7127 9.2094 11.6615 9.27817 11.6709 9.28744C11.7499 9.36585 11.2706 24.8909 11.1818 25.1261C10.7906 26.1622 9.29175 26.7953 7.95098 26.4905C6.31194 26.118 4.46981 23.5675 4.15675 21.2372L4.12915 21.0317L4.94773 20.8768C5.39796 20.7916 5.80095 20.7094 5.84329 20.6941C5.92793 20.6636 2.02588 15.6746 1.94005 15.7035C1.89964 15.7171 -0.0271687 21.7892 0.00029072 21.8164C0.00697128 21.823 0.384439 21.7571 0.839131 21.6699C1.29382 21.5826 1.68043 21.5113 1.6983 21.5113C1.71613 21.5112 1.74387 21.5883 1.75995 21.6825C2.44579 25.7061 5.39786 28.6854 10.005 30.0037C10.479 30.1393 10.7449 30.3067 11.9187 31.2081C12.5023 31.6563 13.005 32.0125 13.0358 31.9997C13.0666 31.9868 13.5584 31.6148 14.1285 31.173C15.2686 30.2895 15.5619 30.1193 16.2939 29.9167C20.526 28.7456 23.574 25.5868 24.2395 21.6825C24.2556 21.5883 24.2833 21.5112 24.3012 21.5113C24.319 21.5113 24.7057 21.5826 25.1603 21.6699C25.615 21.7571 25.9927 21.8228 25.9997 21.8159C26.0275 21.7884 24.0914 15.6888 24.0549 15.6888C23.957 15.6888 20.0798 20.6666 20.1562 20.6941C20.1985 20.7094 20.6015 20.7916 21.0518 20.8768L21.8703 21.0317L21.8427 21.2372C21.5297 23.5675 19.6875 26.118 18.0485 26.4905C16.7087 26.7951 15.2088 26.1622 14.8182 25.1275C14.7301 24.8939 14.2503 9.36516 14.3288 9.2873C14.3381 9.27807 15.2868 9.2094 16.4371 9.13464C17.5874 9.05989 18.6373 8.98696 18.7704 8.97257L19.0122 8.94644V8.19624V7.44604L18.8855 7.44582C18.8158 7.44568 18.0021 7.39444 17.0772 7.33187C16.1523 7.26931 15.347 7.21808 15.2877 7.21794C15.1945 7.21776 15.2101 7.19387 15.4029 7.04158C18.5612 4.54684 16.4024 -0.559184 12.4469 0.0500473ZM13.7212 2.47213C15.2602 3.25033 14.7216 5.54176 12.9997 5.54176C11.2761 5.54176 10.7397 3.25015 12.281 2.47081C12.663 2.27764 13.3378 2.27823 13.7212 2.47213Z" fill="#053095"/>
</svg>
