<svg width="53" height="39" viewBox="0 0 53 39" fill="none" xmlns="http://www.w3.org/2000/svg">
<path d="M10.2822 1H10.7822V0.5H10.2822V1ZM23.9505 14.6683H24.4505V14.1683H23.9505V14.6683ZM1.01562 1V0.5H0.515625V1H1.01562ZM10.4377 19.5334L10.7326 19.9371L11.2854 19.5334L10.7326 19.1296L10.4377 19.5334ZM1.01562 38.0667H0.515625V38.5667H1.01562V38.0667ZM10.2822 38.0667V38.5667H10.7822V38.0667H10.2822ZM23.9505 24.3985V24.8985H24.4505V24.3985H23.9505ZM9.78224 1C9.78224 8.82491 16.1256 15.1683 23.9505 15.1683V14.1683C16.6779 14.1683 10.7822 8.27263 10.7822 1H9.78224ZM1.01562 1.5H10.2822V0.5H1.01562V1.5ZM10.7326 19.1296C5.14441 15.0482 1.51562 8.44792 1.51562 1H0.515625C0.515625 8.78064 4.30792 15.6756 10.1428 19.9371L10.7326 19.1296ZM1.51562 38.0667C1.51562 30.6188 5.14441 24.0185 10.7326 19.9371L10.1428 19.1296C4.30792 23.3911 0.515625 30.2861 0.515625 38.0667H1.51562ZM10.2822 37.5667H1.01562V38.5667H10.2822V37.5667ZM23.9505 23.8985C16.1256 23.8985 9.78224 30.2418 9.78224 38.0667H10.7822C10.7822 30.7941 16.6779 24.8985 23.9505 24.8985V23.8985ZM23.4505 23.9349V24.3985H24.4505V23.9349H23.4505ZM23.4505 15.1318V23.9349H24.4505V15.1318H23.4505ZM23.4505 14.6683V15.1318H24.4505V14.6683H23.4505Z" fill="white"/>
<path d="M38.3369 1H38.8369V0.5H38.3369V1ZM52.0052 14.6683H52.5052V14.1683H52.0052V14.6683ZM29.0703 1V0.5H28.5703V1H29.0703ZM38.4924 19.5334L38.7873 19.9371L39.3401 19.5334L38.7873 19.1296L38.4924 19.5334ZM29.0703 38.0667H28.5703V38.5667H29.0703V38.0667ZM38.3369 38.0667V38.5667H38.8369V38.0667H38.3369ZM52.0052 24.3985V24.8985H52.5052V24.3985H52.0052ZM37.8369 1C37.8369 8.82491 44.1803 15.1683 52.0052 15.1683V14.1683C44.7326 14.1683 38.8369 8.27263 38.8369 1H37.8369ZM29.0703 1.5H38.3369V0.5H29.0703V1.5ZM38.7873 19.1296C33.1991 15.0482 29.5703 8.44792 29.5703 1H28.5703C28.5703 8.78064 32.3626 15.6756 38.1975 19.9371L38.7873 19.1296ZM29.5703 38.0667C29.5703 30.6188 33.1991 24.0185 38.7873 19.9371L38.1975 19.1296C32.3626 23.3911 28.5703 30.2861 28.5703 38.0667H29.5703ZM38.3369 37.5667H29.0703V38.5667H38.3369V37.5667ZM52.0052 23.8985C44.1803 23.8985 37.8369 30.2418 37.8369 38.0667H38.8369C38.8369 30.7941 44.7326 24.8985 52.0052 24.8985V23.8985ZM51.5052 23.9349V24.3985H52.5052V23.9349H51.5052ZM51.5052 15.1318V23.9349H52.5052V15.1318H51.5052ZM51.5052 14.6683V15.1318H52.5052V14.6683H51.5052Z" fill="white"/>
</svg>
