<svg width="52" height="52" viewBox="0 0 52 52" fill="none" xmlns="http://www.w3.org/2000/svg">
  <circle cx="26" cy="26" r="26" fill="#053095"/>
  <path fill-rule="evenodd" clip-rule="evenodd" d="M25.6171 15.0344C23.2183 15.4013 22.4304 18.3584 24.3361 19.842C24.4694 19.9457 24.4803 19.9622 24.4158 19.9623C24.3748 19.9624 23.8173 19.9977 23.177 20.0407C22.5366 20.0837 21.9733 20.1189 21.925 20.119L21.8373 20.1192V20.6349V21.1507L22.0048 21.1686C22.0969 21.1785 22.8238 21.2287 23.6201 21.2801C24.4165 21.3315 25.0733 21.3787 25.0798 21.3851C25.1346 21.439 24.8027 32.1125 24.7412 32.2742C24.4704 32.9865 23.4327 33.4218 22.5045 33.2123C21.3698 32.9561 20.0945 31.2026 19.8777 29.6006L19.8586 29.4593L20.4254 29.3528C20.737 29.2942 21.016 29.2377 21.0454 29.2272C21.104 29.2063 18.4025 25.7763 18.3431 25.7962C18.3151 25.8055 16.9812 29.9801 17.0002 29.9988C17.0048 30.0033 17.2661 29.958 17.5809 29.898C17.8957 29.8381 18.1634 29.789 18.1757 29.789C18.1881 29.789 18.2073 29.842 18.2184 29.9067C18.6932 32.6729 20.737 34.7212 23.9265 35.6275C24.2547 35.7208 24.4388 35.8358 25.2514 36.4556C25.6554 36.7637 26.0035 37.0086 26.0248 36.9998C26.0461 36.9909 26.3866 36.7352 26.7813 36.4314C27.5706 35.824 27.7737 35.707 28.2804 35.5678C31.2103 34.7626 33.3205 32.5909 33.7812 29.9067C33.7923 29.842 33.8115 29.789 33.8239 29.789C33.8363 29.789 34.1039 29.8381 34.4187 29.898C34.7335 29.958 34.995 30.0032 34.9998 29.9984C35.019 29.9795 33.6787 25.786 33.6534 25.786C33.5856 25.786 30.9014 29.2083 30.9543 29.2272C30.9836 29.2377 31.2626 29.2942 31.5743 29.3528L32.141 29.4593L32.1219 29.6006C31.9052 31.2026 30.6298 32.9561 29.4951 33.2123C28.5675 33.4216 27.5292 32.9865 27.2588 32.2751C27.1977 32.1145 26.8656 21.4385 26.9199 21.385C26.9264 21.3787 27.5832 21.3315 28.3795 21.2801C29.1759 21.2287 29.9028 21.1785 29.9949 21.1686L30.1623 21.1507V20.6349V20.1192L30.0746 20.119C30.0264 20.1189 29.463 20.0837 28.8227 20.0407C28.1823 19.9977 27.6249 19.9624 27.5838 19.9623C27.5193 19.9622 27.5301 19.9458 27.6635 19.8411C29.8501 18.126 28.3555 14.6156 25.6171 15.0344ZM26.4993 16.6996C27.5647 17.2346 27.1919 18.81 25.9998 18.81C24.8065 18.81 24.4352 17.2345 25.5022 16.6987C25.7667 16.5659 26.2338 16.5663 26.4993 16.6996Z" fill="white"/>
</svg>
